# xmcd CD database file
#
# Track frame offsets:
#	150
#	12625
#	43722
#	55812
#	66955
#	82257
#	95351
#	109282
#	123026
#	148594
#	162107
#	175995
#	189764
#
# Disc length: 2715 seconds
#
# Revision: 7
# Processed by: cddbd v1.5.2PL0 Copyright (c) Steve Scherf et al.
# Submitted via: CDex 1.51
#
DISCID=af0a990d
DTITLE=Dizzy Gillespie - Salt Peanuts  [CD 07-10]
DYEAR=1900
DGENRE=Jazz
TTITLE0=All the Things You Are
TTITLE1=Caribe
TTITLE2=Cognac Blues
TTITLE3='Round About Midnight
TTITLE4=An Oscar For Treadwell
TTITLE5=Anthropology
TTITLE6=Swing Low, Sweet Cadillac
TTITLE7=Take The ''A'' Train
TTITLE8=The Champ
TTITLE9=Lonesome Nights
TTITLE10=Manteca
TTITLE11=Night In Tunisia
TTITLE12=On The Sunny Side Of The Street
EXTD=
EXTT0=
EXTT1=
EXTT2=
EXTT3=
EXTT4=
EXTT5=
EXTT6=
EXTT7=
EXTT8=
EXTT9=
EXTT10=
EXTT11=
EXTT12=
PLAYORDER=
